<?xml version="1.0" standalone="no"?>
<!DOCTYPE svg PUBLIC "-//W3C//DTD SVG 20010904//EN"
 "http://www.w3.org/TR/2001/REC-SVG-20010904/DTD/svg10.dtd">
<svg version="1.0" xmlns="http://www.w3.org/2000/svg"
 width="70.000000pt" height="70.000000pt" viewBox="0 0 70.000000 70.000000"
 preserveAspectRatio="xMidYMid meet">
<metadata>
Created by potrace 1.14, written by Peter Selinger 2001-2017
</metadata>
<g transform="translate(0.000000,70.000000) scale(0.100000,-0.100000)"
fill="#000000" stroke="none">
<path d="M153 618 c24 -40 62 -103 84 -139 l41 -66 -34 -18 c-87 -46 -127
-161 -88 -253 55 -134 233 -171 332 -69 93 96 74 253 -39 320 l-37 22 79 129
c43 70 79 132 79 137 0 5 -27 9 -60 9 l-59 0 -52 -85 c-29 -47 -53 -85 -55
-85 -2 0 -21 31 -44 69 -56 97 -61 101 -131 101 l-59 0 43 -72z"/>
</g>
</svg>
